<?xml version="1.0" encoding="UTF-8"?>
<svg id="Layer_1" data-name="Layer 1" xmlns="http://www.w3.org/2000/svg" viewBox="0 0 1309.35 1339.8">
  <defs>
    <style>
      .cls-1 {
        fill: #6e4fd8;
        stroke: #000;
        stroke-miterlimit: 10;
        stroke-width: 20.05px;
      }
    </style>
  </defs>
  <path class="cls-1" d="M686.96,618.75s9.48,115.95-10.84,137.82c0,0,72.41,402.33,58.35,471.09,76.57-28.13,273.58-209.51,300.96-265.13,0,0-46.88-415.89,0-639.35-27.64,42.36-258.35,261.24-348.47,295.56Z"/>
  <path class="cls-1" d="M774.47,495.82s20.31-53.7,20.31-78.91c44.25-24.72,152.06-216.2,184.54-292.34,17.04,16.02,45.2,75.6,35.49,111.95-9.85,36.89-175.79,222.58-240.35,259.31Z"/>
  <path class="cls-1" d="M578.86,869.52s32.31-21.7,46.14-63.71l51.43,470.27s17.72,59.47-42.44,53.22c-2.1,4.39-29.35-365.22-55.13-459.79Z"/>
  <path class="cls-1" d="M462.72,695.32s30.73,39.07,69.02,4.17c0,0,75.01,64.59,54.69,95.58-19.68,30.03-33.86,6.51-52.02-11.15-3.36-3.26-9.22-1.35-12.68,1.81-5.92,5.4-15.23,17.55-24.63,44.51-15.63,44.8-40.89,68.24-49.22,9.9,0,0-4.4-41.84,6-71.45,.39-1.1-.63-2.16-1.73-1.78-8.7,3.01-35.16,11.21-37.98,.57-3.39-12.76,1.42-35.68,48.56-72.14Z"/>
  <path class="cls-1" d="M451.4,189.54s30.73-39.07,69.02-4.17c0,0,66.15-58.08,54.69-95.58-11.46-37.5-33.08,7.03-58.34,13.54,0,0-15.37-3.91-30.99-48.7-15.63-44.8-40.89-68.24-49.22-9.9,0,0-4.69,44.54,7.03,74.23,0,0-28.91-16.15-32.29-3.39s-7.03,37.5,40.11,73.97Z"/>
  <path class="cls-1" d="M392.66,524.99s23.44,84.9,118.76,44.28c0,0,62.51,155.74-63.03,56.78,0,0-11.98-11.98-18.75,10.94-6.38,21.6,2.97,60.78-51.32,43.42-12.94-4.14-21.76-16.37-20.92-29.93,.66-10.65,5.55-24.86,19.31-43.21,2.62-3.49,.26-8.5-4.1-8.68-9.69-.41-25.52-1.46-45.96-4.15-38.39-5.04-44.94-73.6,66.01-69.43Z"/>
  <path class="cls-1" d="M442.15,440.51s-10.88,74.76,23.96,81.26c60.8,11.33,73.9-7.52,66.67-81.78,0,0,58.86,38.55,79.7-29.69,20.84-68.24-49.48-80.22-71.36-58.86,0,0,14.58-126.57-50.53-114.07-65.11,12.5-65.11,66.15-43.23,121.37,0,0-49.48-20.31-84.9,54.17-35.42,74.49,51.71,39.59,79.7,27.61Z"/>
  <path class="cls-1" d="M376.42,331.46s-65.11,7.29-58.34,77.61c6.77,70.32-78.65,7.81-31.25-72.92,0,0-84.9-3.13-68.76-57.82,16.15-54.69,107.3-9.9,107.3-9.9,0,0,8.86-125.53,75.01-59.9,0,0,33.34,27.43-3.65,36.11-36.98,8.68-20.31,86.81-20.31,86.81Z"/>
  <path class="cls-1" d="M571.68,205.59s27.09,56.78,10.94,91.15c18.86,15.47,59.24-6.88,70.32,86.99,0,0,43.23,16.15,79.7-15.11,0,0,55.21-48.44-25.52-85.95,0,0,81.78-79.17,1.04-71.36,0,0-48.44,6.25-69.8,26.57,0,0,30.21-122.41-66.67-32.29Z"/>
  <path class="cls-1" d="M552.58,552.59s25-53.65,66.15-85.42c40.33-31.14,91.17-23.26,26,27.09-3.32,2.56-6.23,5.65-8.51,9.17-4.83,7.44-9.69,18.44,8.56,12.71,26.57-8.33,121.74,15.06,62.51,31.77,0,0-70.84,16.15-70.84,40.63,0,0,29.69,42.36-7.81,84.38,0,0-64.79,70.94-28.85-37.41,0,0,11.14-32.91-22.19-39.69,0,0,16.15-26.04-25-43.23Z"/>
  <path class="cls-1" d="M809.28,319.54c24.03-26.15,110.42-171.35,121.46-234.29-10.57-13.19-28.65-40.63-65.29-59.82,0,0-26.35,222.61-56.17,294.11Z"/>
</svg>